<svg width="100" height="100" viewBox="0 0 100 100" fill="none" xmlns="http://www.w3.org/2000/svg">
<path d="M50 100C77.6142 100 100 77.6142 100 50C100 22.3858 77.6142 0 50 0C22.3858 0 0 22.3858 0 50C0 77.6142 22.3858 100 50 100Z" fill="#FFE2E9"/>
<path d="M50.0005 60C52.1235 60 53.8466 58.2769 53.8466 56.1538V29.4872C53.8466 27.3641 52.1235 25.641 50.0005 25.641C47.8774 25.641 46.1543 27.3641 46.1543 29.4872V56.1538C46.1543 58.2769 47.8774 60 50.0005 60Z" fill="#DD3059"/>
<path d="M50.2569 75.6411C52.5226 75.6411 54.3594 73.8044 54.3594 71.5386C54.3594 69.2728 52.5226 67.436 50.2569 67.436C47.9911 67.436 46.1543 69.2728 46.1543 71.5386C46.1543 73.8044 47.9911 75.6411 50.2569 75.6411Z" fill="#DD3059"/>
</svg>
